<?xml version="1.0" encoding="UTF-8" standalone="no"?>
<!-- Generator: Adobe Illustrator 27.8.0, SVG Export Plug-In . SVG Version: 6.00 Build 0)  -->

<svg
   version="1.1"
   id="Layer_1"
   x="0px"
   y="0px"
   viewBox="0 0 2780.0001 2029.5247"
   xml:space="preserve"
   sodipodi:docname="premium-logo-small.svg"
   inkscape:version="1.2 (dc2aedaf03, 2022-05-15)"
   inkscape:export-filename="premium-properties-logo.png"
   inkscape:export-xdpi="96"
   inkscape:export-ydpi="96"
   width="2780"
   height="2029.5248"
   xmlns:inkscape="http://www.inkscape.org/namespaces/inkscape"
   xmlns:sodipodi="http://sodipodi.sourceforge.net/DTD/sodipodi-0.dtd"
   xmlns="http://www.w3.org/2000/svg"
   xmlns:svg="http://www.w3.org/2000/svg"><defs
   id="defs1192" /><sodipodi:namedview
   id="namedview1190"
   pagecolor="#ffffff"
   bordercolor="#000000"
   borderopacity="0.25"
   inkscape:showpageshadow="2"
   inkscape:pageopacity="0.0"
   inkscape:pagecheckerboard="0"
   inkscape:deskcolor="#d1d1d1"
   showgrid="false"
   inkscape:zoom="0.2389722"
   inkscape:cx="1295.1297"
   inkscape:cy="991.74714"
   inkscape:window-width="1920"
   inkscape:window-height="1017"
   inkscape:window-x="-8"
   inkscape:window-y="-8"
   inkscape:window-maximized="1"
   inkscape:current-layer="g1187" />
<style
   type="text/css"
   id="style1147">
	.st0{fill:#9c7a40;}
</style>
<g
   id="g1187"
   transform="matrix(0.9436753,0,0,0.9436753,71.641059,40.830866)">
	<rect
   style="fill:none;stroke-width:1.00747;stroke-linecap:square;stroke-miterlimit:1;paint-order:markers fill stroke;stop-color:#000000"
   id="rect1837"
   width="2945.9285"
   height="2150.6599"
   x="-75.917084"
   y="-43.267841" />
	<g
   id="g2058"
   transform="translate(-156.65953,294.30042)"><g
     id="g1183"
     transform="matrix(1.0241222,0,0,1.0241222,-36.785802,-2.593139)">
		<path
   class="st0"
   d="M 114.76,932.33 V 906.7 h 47.61 c 13.73,0 28.61,-0.61 44.63,-1.83 16.02,-1.22 31.51,-1.83 46.46,-1.83 16.78,0 33.26,1.6 49.44,4.81 16.17,3.2 30.51,8.63 43.03,16.25 12.51,7.63 22.66,17.78 30.44,30.44 7.78,12.67 11.67,28.46 11.67,47.38 0,18.01 -3.97,33.49 -11.9,46.46 -7.94,12.98 -18.39,23.57 -31.36,31.81 -12.97,8.24 -27.92,14.35 -44.86,18.31 -16.94,3.97 -34.41,5.95 -52.41,5.95 -1.83,0 -4.58,0 -8.24,0 -3.66,0 -7.55,-0.07 -11.67,-0.23 -4.12,-0.15 -8.01,-0.38 -11.67,-0.69 -3.66,-0.3 -6.41,-0.61 -8.24,-0.92 v 98.88 h 45.78 v 25.63 h -138.7 v -25.63 h 41.65 V 932.33 Z m 92.93,144.19 c 1.52,0.61 3.89,0.99 7.1,1.14 3.2,0.16 6.64,0.39 10.3,0.69 3.66,0.31 7.24,0.46 10.76,0.46 3.51,0 6.18,0 8.01,0 11.9,0 23.12,-1.44 33.64,-4.35 10.53,-2.9 19.76,-7.4 27.69,-13.5 7.93,-6.1 14.19,-14.03 18.77,-23.8 4.58,-9.76 6.87,-21.51 6.87,-35.25 0,-25.02 -7.86,-43.49 -23.57,-55.39 -15.72,-11.9 -37.16,-17.85 -64.32,-17.85 -8.24,0 -15.11,0.23 -20.6,0.69 -5.49,0.46 -10.38,1.14 -14.65,2.06 z"
   id="path1149" />
		<path
   class="st0"
   d="m 604.56,1201.49 h 39.82 v 25.63 H 511.64 v -25.63 h 41.65 V 932.33 H 511.64 V 906.7 h 46.23 c 13.73,0 28.68,-0.61 44.86,-1.83 16.17,-1.22 32.04,-1.83 47.61,-1.83 16.78,0 32.57,1.76 47.38,5.27 14.8,3.52 27.54,8.94 38.22,16.27 10.68,7.34 19.15,16.74 25.41,28.19 6.25,11.46 9.39,25.13 9.39,41.02 0,22 -6.79,40.72 -20.37,56.15 -13.58,15.44 -31.36,26.36 -53.33,32.77 l 91.09,118.77 h 28.38 v 25.63 h -74.16 l -91.09,-138.24 h -46.69 v 112.62 z m 36.16,-135.5 c 23.5,0 41.89,-6.45 55.16,-19.35 13.27,-12.9 19.91,-30.41 19.91,-52.53 0,-22.73 -7.03,-39.32 -21.06,-49.77 -14.04,-10.44 -32.66,-15.67 -55.85,-15.67 -7.94,0 -14.57,0.31 -19.91,0.92 -5.34,0.61 -10.15,1.23 -14.42,1.85 V 1066 h 36.17 z"
   id="path1151" />
		<path
   class="st0"
   d="m 1170.8,906.69 v 75.07 h -29.3 V 942.4 l -9.16,-10.07 H 1020.2 v 118.56 h 77.36 l 6.87,-6.87 v -19.23 h 29.3 v 78.28 h -29.3 v -19.23 l -6.87,-7.32 h -77.36 v 124.97 h 119.93 l 9.16,-9.16 v -44.86 h 29.3 v 79.65 H 927.28 v -25.63 h 41.66 V 932.33 H 927.28 V 906.7 h 243.52 z"
   id="path1153" />
		<path
   class="st0"
   d="M 1314.08,932.33 V 906.7 h 104.37 l 108.03,205.08 110.32,-205.08 h 98.42 v 25.63 h -41.66 v 269.16 h 41.66 v 25.63 h -132.75 v -25.63 h 41.65 V 997.33 c 0.3,-1.52 0.53,-5.11 0.69,-10.76 0.15,-5.64 0.38,-11.67 0.69,-18.08 0.3,-7.62 0.61,-15.86 0.91,-24.72 h -4.12 l -19.68,48.98 -93.84,165.71 h -27.92 l -91.55,-165.71 -20.14,-53.56 h -4.58 v 28.38 c 0,7.02 0.07,13.66 0.23,19.91 0.15,6.26 0.23,9.54 0.23,9.84 v 204.16 h 39.83 v 25.63 h -110.78 v -25.63 h 41.65 V 932.33 Z"
   id="path1155" />
		<path
   class="st0"
   d="m 1999.8,1227.12 h -134.58 v -25.63 h 41.65 V 932.33 h -41.65 V 906.7 h 134.58 v 25.63 h -41.65 v 269.16 h 41.65 z"
   id="path1157" />
		<path
   class="st0"
   d="m 2408.11,1168.3 c -5.8,14.19 -13.96,25.94 -24.49,35.25 -10.53,9.31 -23.27,16.25 -38.22,20.83 -14.96,4.58 -31.59,6.87 -49.9,6.87 -43.34,0 -76.37,-8.62 -99.11,-25.86 -22.74,-17.24 -34.1,-43.87 -34.1,-79.88 V 932.33 h -41.66 V 906.7 h 130.92 v 25.63 h -37.99 v 183.56 c 0,15.87 1.98,29.22 5.95,40.05 3.96,10.84 9.69,19.53 17.17,26.09 7.47,6.57 16.71,11.29 27.69,14.19 10.99,2.9 23.5,4.35 37.53,4.35 26.85,0 47.84,-6.71 62.94,-20.14 15.11,-13.43 22.66,-35.4 22.66,-65.92 V 932.33 h -37.99 V 906.7 h 108.94 v 25.63 h -41.65 v 185.39 c 0.01,19.53 -2.9,36.39 -8.69,50.58 z"
   id="path1159" />
		<path
   class="st0"
   d="M 2570.16,932.33 V 906.7 h 104.37 l 108.03,205.08 110.32,-205.08 h 98.42 v 25.63 h -41.66 v 269.16 h 41.66 v 25.63 h -132.75 v -25.63 h 41.66 V 997.33 c 0.3,-1.52 0.53,-5.11 0.69,-10.76 0.15,-5.64 0.38,-11.67 0.69,-18.08 0.3,-7.62 0.61,-15.86 0.91,-24.72 h -4.12 l -19.68,48.98 -93.84,165.71 h -27.92 l -91.55,-165.71 -20.14,-53.56 h -4.58 v 28.38 c 0,7.02 0.07,13.66 0.23,19.91 0.15,6.26 0.23,9.54 0.23,9.84 v 204.16 h 39.82 v 25.63 h -110.78 v -25.63 h 41.65 V 932.33 Z"
   id="path1161" />
		<path
   class="st0"
   d="m 497.4,1424.63 v -14.41 h 26.75 c 7.72,0 16.08,-0.34 25.08,-1.03 9,-0.68 17.7,-1.03 26.11,-1.03 9.43,0 18.69,0.9 27.78,2.7 9.09,1.8 17.15,4.85 24.18,9.13 7.03,4.29 12.74,9.99 17.11,17.11 4.37,7.12 6.56,15.99 6.56,26.63 0,10.12 -2.23,18.82 -6.69,26.11 -4.46,7.29 -10.34,13.25 -17.62,17.88 -7.29,4.63 -15.69,8.06 -25.21,10.29 -9.52,2.23 -19.34,3.34 -29.46,3.34 -1.03,0 -2.57,0 -4.63,0 -2.06,0 -4.24,-0.04 -6.56,-0.13 -2.32,-0.08 -4.5,-0.21 -6.56,-0.39 -2.06,-0.17 -3.6,-0.34 -4.63,-0.51 v 55.57 h 25.72 v 14.41 H 497.4 v -14.41 h 23.41 v -151.26 z m 52.22,81.04 c 0.86,0.35 2.19,0.56 3.99,0.64 1.8,0.09 3.73,0.22 5.79,0.39 2.06,0.17 4.07,0.26 6.05,0.26 1.97,0 3.47,0 4.5,0 6.69,0 12.99,-0.81 18.91,-2.44 5.92,-1.63 11.1,-4.16 15.56,-7.59 4.46,-3.43 7.98,-7.89 10.55,-13.38 2.57,-5.49 3.86,-12.09 3.86,-19.81 0,-14.06 -4.42,-24.44 -13.25,-31.13 -8.84,-6.69 -20.88,-10.03 -36.15,-10.03 -4.63,0 -8.49,0.13 -11.58,0.39 -3.09,0.26 -5.83,0.64 -8.23,1.16 z"
   id="path1163" />
		<path
   class="st0"
   d="m 772.66,1575.9 h 22.38 v 14.41 h -74.6 v -14.41 h 23.41 v -151.26 h -23.41 v -14.41 h 25.98 c 7.72,0 16.12,-0.34 25.21,-1.03 9.09,-0.68 18.01,-1.03 26.75,-1.03 9.43,0 18.31,0.99 26.63,2.96 8.31,1.98 15.48,5.02 21.48,9.14 6,4.12 10.76,9.41 14.28,15.85 3.51,6.44 5.27,14.12 5.27,23.05 0,12.36 -3.82,22.88 -11.45,31.56 -7.63,8.67 -17.62,14.81 -29.97,18.42 l 51.19,66.75 h 15.95 v 14.41 h -41.67 l -51.19,-77.69 h -26.24 z m 20.32,-76.15 c 13.21,0 23.54,-3.63 31,-10.88 7.46,-7.25 11.19,-17.09 11.19,-29.52 0,-12.77 -3.94,-22.1 -11.83,-27.97 -7.89,-5.87 -18.35,-8.81 -31.38,-8.81 -4.46,0 -8.19,0.17 -11.19,0.52 -3,0.35 -5.7,0.69 -8.1,1.04 v 75.62 z"
   id="path1165" />
		<path
   class="st0"
   d="m 951.45,1500.26 c 0,-13.38 2.06,-25.77 6.17,-37.17 4.12,-11.4 10.07,-21.26 17.88,-29.58 7.8,-8.32 17.4,-14.79 28.81,-19.42 11.4,-4.63 24.39,-6.95 38.97,-6.95 14.57,0 27.61,2.32 39.1,6.95 11.49,4.63 21.18,11.11 29.07,19.42 7.89,8.32 13.89,18.18 18.01,29.58 4.12,11.41 6.18,23.8 6.18,37.17 0,13.38 -2.06,25.77 -6.18,37.17 -4.11,11.41 -10.12,21.27 -18.01,29.58 -7.89,8.32 -17.58,14.79 -29.07,19.42 -11.49,4.63 -24.53,6.95 -39.1,6.95 -14.58,0 -27.57,-2.32 -38.97,-6.95 -11.41,-4.63 -21.01,-11.1 -28.81,-19.42 -7.81,-8.32 -13.76,-18.18 -17.88,-29.58 -4.11,-11.4 -6.17,-23.79 -6.17,-37.17 z m 32.16,0 c 0,10.98 1.24,21.27 3.73,30.87 2.49,9.61 6.3,17.92 11.45,24.95 5.14,7.03 11.62,12.61 19.42,16.72 7.8,4.12 17.02,6.17 27.65,6.17 9.77,0 18.27,-2.06 25.47,-6.17 7.2,-4.12 13.16,-9.69 17.88,-16.72 4.71,-7.03 8.27,-15.35 10.68,-24.95 2.4,-9.6 3.6,-19.89 3.6,-30.87 0,-10.97 -1.25,-21.26 -3.73,-30.87 -2.49,-9.6 -6.3,-17.92 -11.45,-24.95 -5.15,-7.03 -11.62,-12.61 -19.42,-16.72 -7.81,-4.12 -17.11,-6.17 -27.91,-6.17 -10.29,0 -19.08,2.06 -26.37,6.17 -7.29,4.12 -13.25,9.69 -17.88,16.72 -4.63,7.03 -7.98,15.35 -10.03,24.95 -2.06,9.61 -3.09,19.9 -3.09,30.87 z"
   id="path1167" />
		<path
   class="st0"
   d="m 1209.98,1424.63 v -14.41 h 26.76 c 7.72,0 16.08,-0.34 25.08,-1.03 9,-0.68 17.71,-1.03 26.11,-1.03 9.43,0 18.69,0.9 27.78,2.7 9.09,1.8 17.15,4.85 24.18,9.13 7.03,4.29 12.73,9.99 17.11,17.11 4.37,7.12 6.56,15.99 6.56,26.63 0,10.12 -2.23,18.82 -6.69,26.11 -4.46,7.29 -10.34,13.25 -17.62,17.88 -7.29,4.63 -15.69,8.06 -25.21,10.29 -9.52,2.23 -19.34,3.34 -29.46,3.34 -1.03,0 -2.57,0 -4.63,0 -2.06,0 -4.25,-0.04 -6.56,-0.13 -2.32,-0.08 -4.5,-0.21 -6.56,-0.39 -2.06,-0.17 -3.6,-0.34 -4.63,-0.51 v 55.57 h 25.72 v 14.41 h -77.95 v -14.41 h 23.41 v -151.26 z m 52.23,81.04 c 0.86,0.35 2.19,0.56 3.99,0.64 1.8,0.09 3.73,0.22 5.79,0.39 2.06,0.17 4.07,0.26 6.04,0.26 1.97,0 3.48,0 4.5,0 6.69,0 12.99,-0.81 18.91,-2.44 5.92,-1.63 11.1,-4.16 15.56,-7.59 4.46,-3.43 7.98,-7.89 10.55,-13.38 2.57,-5.49 3.86,-12.09 3.86,-19.81 0,-14.06 -4.42,-24.44 -13.25,-31.13 -8.83,-6.69 -20.88,-10.03 -36.14,-10.03 -4.63,0 -8.49,0.13 -11.58,0.39 -3.09,0.26 -5.83,0.64 -8.23,1.16 z"
   id="path1169" />
		<path
   class="st0"
   d="m 1569.88,1410.22 v 42.19 h -16.47 v -22.12 l -5.14,-5.66 h -63.03 v 66.63 h 43.48 l 3.86,-3.86 v -10.8 h 16.47 v 43.99 h -16.47 v -10.8 l -3.86,-4.12 h -43.48 v 70.23 h 67.4 l 5.14,-5.15 v -25.21 h 16.46 v 44.76 h -141.23 v -14.41 h 23.41 v -151.26 h -23.41 v -14.41 z"
   id="path1171" />
		<path
   class="st0"
   d="M 1702.62,1575.9 H 1725 v 14.41 h -74.6 v -14.41 h 23.41 v -151.26 h -23.41 v -14.41 h 25.98 c 7.72,0 16.12,-0.34 25.21,-1.03 9.09,-0.68 18.01,-1.03 26.75,-1.03 9.43,0 18.31,0.99 26.63,2.96 8.32,1.98 15.48,5.02 21.48,9.14 6,4.12 10.76,9.41 14.28,15.85 3.52,6.44 5.28,14.12 5.28,23.05 0,12.36 -3.82,22.88 -11.45,31.56 -7.63,8.67 -17.62,14.81 -29.97,18.42 l 51.19,66.75 h 15.95 v 14.41 h -41.67 l -51.19,-77.69 h -26.24 v 63.28 z m 20.32,-76.15 c 13.2,0 23.54,-3.63 31,-10.88 7.46,-7.25 11.19,-17.09 11.19,-29.52 0,-12.77 -3.95,-22.1 -11.83,-27.97 -7.89,-5.87 -18.36,-8.81 -31.38,-8.81 -4.46,0 -8.19,0.17 -11.19,0.52 -3,0.35 -5.7,0.69 -8.1,1.04 v 75.62 z"
   id="path1173" />
		<path
   class="st0"
   d="m 1992.03,1590.3 h -81.81 v -14.41 h 26.5 v -151.26 h -46.05 l -5.15,5.66 v 33.19 H 1867 v -53.25 h 168.24 v 53.25 h -18.52 v -33.19 l -5.14,-5.66 h -46.05 v 151.26 h 26.5 z"
   id="path1175" />
		<path
   class="st0"
   d="m 2181.36,1590.3 h -75.63 v -14.41 h 23.41 v -151.26 h -23.41 v -14.41 h 75.63 v 14.41 h -23.41 v 151.26 h 23.41 z"
   id="path1177" />
		<path
   class="st0"
   d="m 2391.28,1410.22 v 42.19 h -16.46 v -22.12 l -5.15,-5.66 h -63.02 v 66.63 h 43.47 l 3.86,-3.86 v -10.8 h 16.46 v 43.99 h -16.46 v -10.8 l -3.86,-4.12 h -43.47 v 70.23 h 67.4 l 5.15,-5.15 v -25.21 h 16.46 v 44.76 h -141.23 v -14.41 h 23.41 v -151.26 h -23.41 v -14.41 z"
   id="path1179" />
		<path
   class="st0"
   d="m 2495.98,1565.09 4.63,6.17 c 3.09,2.23 7.33,4.08 12.73,5.53 5.4,1.46 11.36,2.19 17.88,2.19 6.17,0 11.87,-0.64 17.11,-1.93 5.23,-1.29 9.82,-3.22 13.76,-5.79 3.94,-2.57 7.03,-5.83 9.26,-9.78 2.23,-3.94 3.34,-8.66 3.34,-14.15 0,-7.03 -2.36,-12.86 -7.08,-17.49 -4.72,-4.63 -10.59,-8.75 -17.62,-12.35 -7.04,-3.6 -14.66,-7.11 -22.9,-10.55 -8.23,-3.43 -15.86,-7.46 -22.9,-12.09 -7.03,-4.63 -12.91,-10.2 -17.62,-16.72 -4.72,-6.52 -7.07,-14.75 -7.07,-24.7 0,-14.57 5.53,-25.94 16.59,-34.09 11.06,-8.14 26.02,-12.22 44.89,-12.22 11.84,0 22.04,0.77 30.61,2.32 8.57,1.54 15.86,3.6 21.87,6.17 v 44.25 H 2577 v -27.78 l -4.12,-6.43 c -3.26,-1.37 -7.98,-2.4 -14.15,-3.09 -6.18,-0.68 -12.27,-1.03 -18.27,-1.03 -10.29,0 -18.36,2.36 -24.18,7.07 -5.83,4.72 -8.75,11.36 -8.75,19.94 0,7.03 2.36,12.91 7.07,17.62 4.72,4.72 10.59,8.96 17.62,12.73 7.03,3.77 14.66,7.42 22.9,10.93 8.23,3.52 15.86,7.55 22.89,12.09 7.03,4.55 12.9,9.99 17.62,16.34 4.71,6.35 7.07,14.24 7.07,23.67 0,16.64 -6.43,29.37 -19.29,38.2 -12.86,8.83 -30.44,13.25 -52.74,13.25 -12.18,0 -22.73,-1.29 -31.64,-3.86 -8.92,-2.57 -15.44,-5.31 -19.55,-8.23 v -46.82 h 16.46 v 30.63 z"
   id="path1181" />
	</g><polygon
     class="st0"
     points="1898.88,379.73 2991.29,582.84 2991.29,519.81 1898.88,316.7 1898.88,107.5 114.77,521.43 114.77,582.77 1836.91,185.48 1836.91,502.43 1898.88,512.64 "
     id="polygon1185"
     transform="matrix(1.0241222,0,0,1.0241222,-36.785802,-2.593139)" /></g>
</g>
</svg>
