<svg xmlns="http://www.w3.org/2000/svg" viewBox="0 0 580 289" width="580" height="289">
<title>BAVERO GmbH logo</title>
<desc>Vectorized from provided raster logo; transparent background.</desc>
<g id="navy" fill="#172B44" fill-rule="evenodd">
<path d="M 377 139 L 377 209 L 396 209 L 396 190 L 398 188 L 418 188 L 436 209 L 459 209 L 455 203 L 440 189 L 441 186 L 447 185 L 451 181 L 454 176 L 454 173 L 455 172 L 455 153 L 453 148 L 447 142 L 445 142 L 442 140 L 436 140 L 435 139 Z M 396 156 L 398 154 L 407 154 L 408 155 L 424 154 L 425 155 L 433 155 L 436 159 L 436 169 L 435 171 L 431 174 L 397 174 L 396 173 Z M 298 139 L 297 140 L 297 209 L 366 209 L 366 195 L 317 195 L 316 194 L 316 182 L 318 180 L 363 180 L 363 168 L 362 167 L 317 167 L 316 166 L 316 155 L 317 154 L 327 154 L 328 153 L 359 153 L 360 154 L 365 154 L 365 139 Z M 199 139 L 199 142 L 211 165 L 211 167 L 215 173 L 216 177 L 218 179 L 219 183 L 221 185 L 221 187 L 232 209 L 255 209 L 290 141 L 290 139 L 270 139 L 254 171 L 254 173 L 247 186 L 246 190 L 244 191 L 242 189 L 242 187 L 234 172 L 231 163 L 229 161 L 219 139 Z M 115 209 L 135 209 L 142 196 L 184 196 L 191 209 L 211 209 L 211 207 L 197 180 L 195 178 L 191 168 L 189 166 L 178 143 L 176 141 L 176 139 L 151 139 L 151 141 L 144 152 L 143 156 L 141 158 Z M 163 155 L 165 156 L 167 162 L 170 166 L 173 174 L 175 176 L 176 179 L 175 182 L 151 182 L 150 181 L 151 177 L 157 165 L 159 163 L 161 157 Z M 33 139 L 33 209 L 96 209 L 100 207 L 103 207 L 107 204 L 111 196 L 111 185 L 107 178 L 104 176 L 97 174 L 98 172 L 103 171 L 107 167 L 109 162 L 108 150 L 107 147 L 103 143 L 96 140 L 91 140 L 90 139 Z M 52 181 L 53 180 L 87 180 L 92 184 L 92 191 L 91 193 L 88 195 L 53 195 L 52 194 Z M 52 154 L 53 153 L 84 153 L 89 156 L 90 162 L 86 167 L 83 167 L 82 168 L 53 168 L 52 167 Z M 470 147 L 467 154 L 467 160 L 466 161 L 466 189 L 467 190 L 468 198 L 472 204 L 481 209 L 485 209 L 486 210 L 530 210 L 540 207 L 547 201 L 550 194 L 550 155 L 547 148 L 542 143 L 535 140 L 525 139 L 524 138 L 495 138 L 494 139 L 486 139 L 479 141 Z M 489 156 L 495 154 L 522 154 L 528 156 L 531 161 L 531 188 L 527 193 L 521 195 L 496 195 L 489 193 L 486 189 L 486 160 Z M 427 119 L 427 118 L 423 115 L 407 106 L 399 100 L 394 98 L 391 95 L 388 94 L 363 78 L 350 82 L 343 86 L 341 86 L 326 93 L 319 95 L 314 98 L 302 102 L 297 105 L 295 105 L 292 107 L 290 107 L 287 109 L 268 116 L 268 117 L 270 116 L 277 116 L 278 115 L 299 115 L 300 114 L 367 114 L 368 115 L 398 116 L 399 117 L 410 117 L 411 118 Z"/>
</g>
<g id="orange" fill="#C66825" fill-rule="evenodd">
<path d="M 348 69 L 331 59 L 323 53 L 310 46 L 307 43 L 302 41 L 294 35 L 291 34 L 268 49 L 255 56 L 236 69 L 220 78 L 215 82 L 210 84 L 195 94 L 188 97 L 182 102 L 177 104 L 174 107 L 172 107 L 167 111 L 164 112 L 157 117 L 157 118 L 165 117 L 189 110 L 200 103 L 227 90 L 233 86 L 235 86 L 237 84 L 268 69 L 270 67 L 290 57 L 293 57 L 299 60 L 301 62 L 328 77 L 335 76 L 348 70 Z"/>
</g>
<g id="gray" fill="#808080" fill-rule="evenodd">
<path d="M 391 247 L 427 247 L 428 246 L 479 245 L 480 244 L 486 244 L 486 243 L 391 242 Z M 189 247 L 189 242 L 188 241 L 186 242 L 144 242 L 143 243 L 96 243 L 96 244 L 98 245 L 154 246 L 155 247 Z M 343 232 L 342 233 L 342 258 L 343 259 L 346 259 L 347 258 L 347 248 L 348 247 L 360 247 L 362 249 L 362 258 L 363 259 L 367 259 L 367 232 L 363 232 L 362 233 L 362 242 L 360 244 L 349 244 L 347 242 L 347 232 Z M 301 232 L 300 233 L 301 235 L 301 259 L 319 259 L 322 258 L 325 254 L 325 249 L 322 245 L 324 240 L 323 235 L 319 232 Z M 305 248 L 306 247 L 316 247 L 320 250 L 320 253 L 317 255 L 306 255 L 305 254 Z M 305 237 L 306 236 L 316 236 L 319 240 L 316 243 L 306 243 L 305 242 Z M 254 232 L 254 259 L 258 259 L 258 243 L 259 242 L 261 243 L 267 252 L 268 252 L 275 243 L 277 242 L 278 243 L 278 259 L 282 259 L 282 232 L 278 232 L 268 244 L 266 243 L 259 232 Z M 218 232 L 214 234 L 210 239 L 209 250 L 212 256 L 220 260 L 227 260 L 233 257 L 236 254 L 236 244 L 224 244 L 224 248 L 231 248 L 232 251 L 227 255 L 220 255 L 214 250 L 214 242 L 215 240 L 220 236 L 227 236 L 233 239 L 235 236 L 230 232 L 226 232 L 225 231 Z M 317 193 L 317 194 L 319 194 L 319 193 Z M 90 192 L 87 193 L 87 194 L 90 193 Z M 398 189 L 398 190 L 418 190 L 418 189 Z M 441 187 L 441 189 L 442 189 L 442 187 Z M 246 187 L 245 187 L 244 190 L 245 190 Z M 195 175 L 196 178 L 197 178 L 196 175 Z M 98 173 L 98 174 L 102 174 L 102 173 Z M 53 166 L 53 167 L 79 167 L 79 166 Z M 465 158 L 465 160 L 466 160 L 466 158 Z M 430 119 L 430 121 L 432 121 L 432 120 Z M 395 117 L 395 118 L 398 118 L 398 117 Z M 263 117 L 263 118 L 265 118 L 265 117 Z M 278 116 L 278 117 L 280 117 L 280 116 Z M 162 112 L 153 117 L 151 119 L 151 121 L 156 122 L 158 120 L 156 117 L 162 113 Z M 189 111 L 180 113 L 176 115 L 173 115 L 169 117 L 161 118 L 161 119 L 168 118 L 172 116 L 178 116 L 183 113 L 189 112 Z M 196 107 L 191 109 L 191 110 L 193 110 L 196 108 Z M 183 99 L 167 108 L 166 110 L 172 106 L 174 106 L 177 103 L 182 101 Z M 225 92 L 200 104 L 200 105 L 209 102 L 212 99 L 214 99 L 216 97 L 225 93 Z M 195 92 L 190 94 L 190 95 L 195 93 Z M 200 89 L 197 90 L 197 91 L 200 90 Z M 234 87 L 229 89 L 229 90 L 234 88 Z M 208 84 L 202 87 L 202 88 L 208 85 Z M 215 80 L 211 81 L 211 82 L 215 81 Z M 262 73 L 237 85 L 237 86 L 243 83 L 245 83 L 247 81 L 249 81 L 251 79 L 262 74 Z M 226 73 L 224 73 L 224 74 L 220 76 L 220 77 L 223 76 L 223 75 L 226 74 Z M 268 70 L 265 71 L 265 72 L 268 71 Z M 231 70 L 229 70 L 228 72 L 231 71 Z M 318 83 L 308 78 L 306 76 L 304 76 L 302 74 L 292 69 L 290 69 L 280 75 L 278 75 L 268 80 L 266 82 L 260 85 L 258 85 L 256 87 L 254 87 L 252 89 L 250 89 L 242 94 L 240 94 L 236 97 L 220 104 L 214 108 L 212 108 L 201 115 L 197 116 L 196 118 L 214 118 L 215 117 L 223 117 L 224 116 L 247 114 L 252 111 L 261 108 L 263 106 L 271 104 L 288 96 L 300 92 L 302 90 L 305 90 L 312 86 L 317 85 Z M 301 63 L 301 64 L 318 73 L 318 72 Z M 242 63 L 237 66 L 233 67 L 233 69 L 236 68 L 242 64 Z M 351 69 L 349 67 L 344 65 L 343 63 L 336 60 L 336 61 L 341 64 L 343 64 L 344 66 L 348 68 L 349 70 L 332 78 L 328 78 L 322 75 L 322 76 L 328 79 L 332 79 L 347 72 L 349 72 Z M 299 61 L 293 58 L 290 58 L 270 68 L 270 69 L 276 67 L 278 65 L 288 60 L 295 60 L 299 62 Z M 250 58 L 244 61 L 244 62 L 250 59 Z M 331 57 L 331 58 L 334 59 L 334 58 Z M 258 53 L 255 54 L 255 55 L 258 54 Z M 318 49 L 318 50 L 323 52 L 322 50 Z M 264 49 L 261 50 L 260 52 L 263 51 Z M 271 45 L 268 46 L 267 48 L 271 46 Z M 309 43 L 310 45 L 316 48 L 315 46 Z M 284 37 L 274 42 L 273 44 L 284 38 Z M 296 35 L 296 36 L 302 40 L 307 42 L 307 41 Z M 294 33 L 290 32 L 287 34 L 286 36 L 291 33 L 294 34 Z"/>
</g>
</svg>